<svg width="676" height="460" viewBox="0 0 676 460" fill="none" xmlns="http://www.w3.org/2000/svg">
<path d="M222.819 138.842C218.97 132.175 223.781 123.842 231.479 123.842L444.521 123.842C452.219 123.842 457.03 132.175 453.181 138.842L346.66 323.342C342.811 330.008 333.189 330.008 329.34 323.342L222.819 138.842Z" fill="#F5890E"/>
<path d="M88.8205 335.183C81.1225 335.183 76.3113 326.85 80.1603 320.183L186.681 135.683C190.53 129.017 200.153 129.017 204.002 135.683L310.523 320.183C314.372 326.85 309.561 335.183 301.863 335.183L88.8205 335.183Z" fill="#E64BE3"/>
<path d="M373.821 335.183C366.123 335.183 361.311 326.85 365.16 320.183L471.681 135.683C475.53 129.017 485.153 129.017 489.002 135.683L595.523 320.183C599.372 326.85 594.561 335.183 586.863 335.183L373.821 335.183Z" fill="#4B74E6"/>
<path d="M146.611 218.813C145.235 218.813 144.217 218.684 143.558 218.426C142.927 218.139 142.512 217.81 142.311 217.437C142.139 217.036 142.053 216.677 142.053 216.362C142.053 215.961 142.282 215.502 142.741 214.986C143.2 214.441 144.088 214.04 145.407 213.782C146.726 213.495 148.288 213.237 150.094 213.008C151.9 212.75 153.821 212.535 155.856 212.363C157.891 212.162 159.955 211.99 162.048 211.847C164.141 211.704 166.133 211.603 168.025 211.546C169.917 211.46 171.594 211.417 173.056 211.417C174.575 211.417 175.751 211.503 176.582 211.675C177.413 211.847 178.001 212.062 178.345 212.32C178.718 212.578 178.933 212.85 178.99 213.137C179.076 213.424 179.119 213.696 179.119 213.954C179.119 214.011 179.119 214.054 179.119 214.083C179.119 214.427 179.033 214.8 178.861 215.201C178.718 215.602 178.388 215.946 177.872 216.233C177.356 216.491 176.582 216.62 175.55 216.62C175.177 216.62 174.346 216.677 173.056 216.792C171.766 216.907 170.189 217.05 168.326 217.222C166.463 217.394 164.485 217.566 162.392 217.738C162.077 219.028 161.718 220.533 161.317 222.253C160.944 223.973 160.557 225.779 160.156 227.671C159.783 229.563 159.425 231.426 159.081 233.261C158.737 235.067 158.45 236.744 158.221 238.292C157.992 239.811 157.834 241.058 157.748 242.033C157.633 243.352 157.246 244.283 156.587 244.828C155.956 245.344 155.326 245.602 154.695 245.602C154.236 245.602 153.778 245.502 153.319 245.301C152.86 245.129 152.488 244.742 152.201 244.14C151.914 243.509 151.771 242.578 151.771 241.345C151.771 240.084 151.886 238.536 152.115 236.701C152.344 234.838 152.645 232.845 153.018 230.724C153.419 228.603 153.864 226.467 154.351 224.317C154.867 222.167 155.397 220.16 155.942 218.297C154.021 218.44 152.244 218.569 150.61 218.684C148.976 218.77 147.643 218.813 146.611 218.813ZM189.819 245.344C189.045 245.344 188.199 245.158 187.282 244.785C186.393 244.384 185.548 243.71 184.745 242.764C183.942 241.818 183.283 240.514 182.767 238.851C182.251 237.188 181.993 235.081 181.993 232.53C181.993 230.638 182.237 228.717 182.724 226.768C183.24 224.79 184.043 222.927 185.132 221.178C186.221 219.429 187.626 217.91 189.346 216.62C191.095 215.33 193.187 214.427 195.624 213.911C196.627 213.682 197.774 213.467 199.064 213.266C200.383 213.037 201.716 212.836 203.063 212.664C204.41 212.463 205.686 212.306 206.89 212.191C208.123 212.076 209.155 212.019 209.986 212.019C211.362 212.019 212.394 212.205 213.082 212.578C213.77 212.951 214.229 213.381 214.458 213.868C214.687 214.327 214.802 214.742 214.802 215.115C214.802 215.574 214.659 216.032 214.372 216.491C214.114 216.95 213.397 217.251 212.222 217.394C211.964 217.423 211.419 217.494 210.588 217.609C209.757 217.695 208.753 217.824 207.578 217.996C206.431 218.168 205.213 218.354 203.923 218.555C202.662 218.727 201.429 218.913 200.225 219.114C199.05 219.286 198.032 219.444 197.172 219.587C195.28 219.931 193.746 220.504 192.571 221.307C191.396 222.081 190.478 222.998 189.819 224.059C189.188 225.12 188.73 226.238 188.443 227.413C189.59 227.155 190.779 226.897 192.012 226.639C193.245 226.381 194.406 226.152 195.495 225.951C196.613 225.75 197.573 225.593 198.376 225.478C199.179 225.363 199.723 225.306 200.01 225.306C201.128 225.306 201.802 225.449 202.031 225.736C202.289 226.023 202.418 226.467 202.418 227.069C202.418 227.614 201.931 228.244 200.956 228.961C199.981 229.649 198.433 230.351 196.312 231.068C194.191 231.785 191.41 232.415 187.97 232.96C187.97 232.989 187.97 233.003 187.97 233.003C187.913 233.576 187.87 234.236 187.841 234.981C187.812 235.698 187.798 236.414 187.798 237.131C187.798 237.848 187.841 238.435 187.927 238.894C188.013 239.353 188.171 239.582 188.4 239.582C189.031 239.582 189.905 239.453 191.023 239.195C192.141 238.937 193.316 238.622 194.549 238.249C195.782 237.876 196.928 237.518 197.989 237.174C199.05 236.801 199.824 236.515 200.311 236.314C201.028 236.027 201.744 235.741 202.461 235.454C203.206 235.167 203.794 235.024 204.224 235.024C204.654 235.024 205.027 235.196 205.342 235.54C205.657 235.855 205.758 236.343 205.643 237.002C205.614 237.289 205.313 237.762 204.74 238.421C204.195 239.052 203.436 239.768 202.461 240.571C201.515 241.345 200.383 242.105 199.064 242.85C197.774 243.567 196.341 244.169 194.764 244.656C193.216 245.115 191.568 245.344 189.819 245.344ZM222.624 246.677C221.477 246.677 220.617 246.362 220.044 245.731C219.471 245.1 219.184 244.455 219.184 243.796C219.184 243.022 219.327 242.434 219.614 242.033C219.901 241.632 220.46 241.331 221.291 241.13C222.38 240.901 223.513 240.614 224.688 240.27C225.892 239.926 227.039 239.568 228.128 239.195C229.246 238.794 230.221 238.392 231.052 237.991C231.883 237.561 232.485 237.16 232.858 236.787C232.399 236.529 231.668 236.228 230.665 235.884C229.662 235.511 228.544 235.081 227.311 234.594C226.107 234.078 224.946 233.476 223.828 232.788C222.71 232.1 221.793 231.297 221.076 230.38C220.359 229.463 220.001 228.416 220.001 227.241C220.001 225.607 220.417 224.073 221.248 222.64C222.079 221.207 223.183 219.874 224.559 218.641C225.935 217.408 227.426 216.276 229.031 215.244C230.665 214.212 232.285 213.28 233.89 212.449C235.524 211.589 236.986 210.829 238.276 210.17C238.763 209.883 239.222 209.697 239.652 209.611C240.111 209.496 240.526 209.439 240.899 209.439C242.189 209.439 243.078 209.754 243.565 210.385C244.052 211.016 244.296 211.661 244.296 212.32C244.296 212.779 244.081 213.323 243.651 213.954C243.221 214.556 242.533 215.115 241.587 215.631C240.67 216.147 239.451 216.52 237.932 216.749C237.674 216.778 237.445 216.806 237.244 216.835C236.097 217.408 234.865 218.096 233.546 218.899C232.227 219.702 230.98 220.547 229.805 221.436C228.658 222.296 227.712 223.156 226.967 224.016C226.222 224.876 225.849 225.65 225.849 226.338C225.849 227.112 226.164 227.814 226.795 228.445C227.426 229.047 228.228 229.606 229.203 230.122C230.206 230.609 231.253 231.082 232.342 231.541C233.46 232 234.506 232.473 235.481 232.96C236.484 233.419 237.301 233.935 237.932 234.508C238.563 235.081 238.878 235.726 238.878 236.443C238.878 237.418 238.548 238.349 237.889 239.238C237.23 240.127 236.37 240.958 235.309 241.732C234.248 242.477 233.087 243.151 231.826 243.753C230.565 244.355 229.318 244.871 228.085 245.301C226.881 245.76 225.792 246.104 224.817 246.333C223.842 246.562 223.111 246.677 222.624 246.677ZM255.287 218.813C253.911 218.813 252.893 218.684 252.234 218.426C251.603 218.139 251.187 217.81 250.987 217.437C250.815 217.036 250.729 216.677 250.729 216.362C250.729 215.961 250.958 215.502 251.417 214.986C251.875 214.441 252.764 214.04 254.083 213.782C255.401 213.495 256.964 213.237 258.77 213.008C260.576 212.75 262.496 212.535 264.532 212.363C266.567 212.162 268.631 211.99 270.724 211.847C272.816 211.704 274.809 211.603 276.701 211.546C278.593 211.46 280.27 211.417 281.732 211.417C283.251 211.417 284.426 211.503 285.258 211.675C286.089 211.847 286.677 212.062 287.021 212.32C287.393 212.578 287.608 212.85 287.666 213.137C287.752 213.424 287.795 213.696 287.795 213.954C287.795 214.011 287.795 214.054 287.795 214.083C287.795 214.427 287.709 214.8 287.537 215.201C287.393 215.602 287.064 215.946 286.548 216.233C286.032 216.491 285.258 216.62 284.226 216.62C283.853 216.62 283.022 216.677 281.732 216.792C280.442 216.907 278.865 217.05 277.002 217.222C275.138 217.394 273.16 217.566 271.068 217.738C270.752 219.028 270.394 220.533 269.993 222.253C269.62 223.973 269.233 225.779 268.832 227.671C268.459 229.563 268.101 231.426 267.757 233.261C267.413 235.067 267.126 236.744 266.897 238.292C266.667 239.811 266.51 241.058 266.424 242.033C266.309 243.352 265.922 244.283 265.263 244.828C264.632 245.344 264.001 245.602 263.371 245.602C262.912 245.602 262.453 245.502 261.995 245.301C261.536 245.129 261.163 244.742 260.877 244.14C260.59 243.509 260.447 242.578 260.447 241.345C260.447 240.084 260.561 238.536 260.791 236.701C261.02 234.838 261.321 232.845 261.694 230.724C262.095 228.603 262.539 226.467 263.027 224.317C263.543 222.167 264.073 220.16 264.618 218.297C262.697 218.44 260.92 218.569 259.286 218.684C257.652 218.77 256.319 218.813 255.287 218.813ZM323.152 248.354C322.149 248.354 321.418 248.01 320.959 247.322C320.529 246.663 320.314 245.803 320.314 244.742C320.314 243.595 320.4 242.578 320.572 241.689C320.773 240.8 321.002 239.897 321.26 238.98C319.856 239.095 318.437 239.209 317.003 239.324C315.57 239.41 314.137 239.482 312.703 239.539C312.187 239.94 311.643 240.256 311.069 240.485C310.496 240.714 309.837 240.829 309.091 240.829C308.002 240.829 307.142 240.6 306.511 240.141C305.881 239.682 305.565 238.951 305.565 237.948C305.565 236.801 305.909 235.956 306.597 235.411C307.314 234.838 308.217 234.436 309.306 234.207C310.74 232.458 312.302 230.71 313.993 228.961C315.685 227.212 317.362 225.478 319.024 223.758C320.687 222.038 322.178 220.347 323.496 218.684C324.844 216.993 325.861 215.344 326.549 213.739C326.893 212.936 327.366 212.377 327.968 212.062C328.599 211.718 329.273 211.546 329.989 211.546C330.993 211.546 331.666 211.933 332.01 212.707C332.383 213.481 332.569 214.413 332.569 215.502C332.569 215.76 332.469 216.419 332.268 217.48C332.068 218.512 331.781 219.845 331.408 221.479C331.064 223.084 330.663 224.876 330.204 226.854C329.774 228.803 329.33 230.824 328.871 232.917C330.763 232.716 332.397 232.559 333.773 232.444C335.149 232.301 336.024 232.229 336.396 232.229C337.228 232.229 337.901 232.315 338.417 232.487C338.933 232.659 339.191 233.089 339.191 233.777C339.191 234.408 338.79 234.938 337.987 235.368C337.213 235.769 336.368 236.128 335.45 236.443C334.533 236.758 333.429 237.074 332.139 237.389C330.849 237.704 329.344 237.991 327.624 238.249C327.338 239.424 327.051 240.542 326.764 241.603C326.478 242.664 326.205 243.882 325.947 245.258C325.747 246.175 325.446 246.921 325.044 247.494C324.672 248.067 324.041 248.354 323.152 248.354ZM324.7 224.661C323.296 226.381 321.834 228.101 320.314 229.821C318.824 231.512 317.39 233.046 316.014 234.422C317.075 234.279 318.15 234.15 319.239 234.035C320.357 233.92 321.475 233.806 322.593 233.691L324.7 224.661ZM367.206 245.344C366.461 245.344 365.916 244.986 365.572 244.269C365.228 243.552 365.056 242.277 365.056 240.442C365.056 237.862 365.214 235.139 365.529 232.272C365.873 229.377 366.317 226.252 366.862 222.898C367.349 220.232 368.51 218.182 370.345 216.749C372.208 215.316 374.702 214.14 377.827 213.223C379.776 212.65 381.797 212.119 383.89 211.632C385.983 211.145 387.946 210.758 389.781 210.471C391.644 210.156 393.178 209.998 394.382 209.998C395.299 209.998 396.016 210.141 396.532 210.428C397.048 210.715 397.406 211.073 397.607 211.503C397.836 211.904 397.951 212.277 397.951 212.621C397.951 213.166 397.822 213.653 397.564 214.083C397.306 214.513 396.747 214.843 395.887 215.072C395.514 215.187 394.726 215.387 393.522 215.674C392.347 215.932 390.899 216.247 389.179 216.62C387.488 216.993 385.696 217.394 383.804 217.824C381.912 218.225 380.077 218.641 378.3 219.071C376.551 219.587 375.261 220.218 374.43 220.963C373.627 221.68 373.097 222.726 372.839 224.102C372.782 224.389 372.724 224.79 372.667 225.306C373.842 224.933 375.104 224.632 376.451 224.403C377.798 224.174 379.045 224.002 380.192 223.887C381.339 223.772 382.184 223.715 382.729 223.715C383.302 223.715 383.904 223.815 384.535 224.016C385.194 224.188 385.753 224.46 386.212 224.833C386.699 225.177 386.943 225.621 386.943 226.166C386.943 226.682 386.742 227.155 386.341 227.585C385.94 227.986 385.123 228.373 383.89 228.746C383.632 228.832 383.044 228.947 382.127 229.09C381.238 229.233 380.178 229.42 378.945 229.649C377.741 229.85 376.508 230.079 375.247 230.337C374.014 230.595 372.925 230.867 371.979 231.154C371.778 232.702 371.592 234.25 371.42 235.798C371.248 237.346 371.105 238.693 370.99 239.84C370.875 240.958 370.789 241.66 370.732 241.947C370.56 243.008 370.144 243.839 369.485 244.441C368.826 245.043 368.066 245.344 367.206 245.344ZM429.174 218.125C429.174 220.361 428.973 222.726 428.572 225.22C428.199 227.685 427.583 230.108 426.723 232.487C425.892 234.838 424.788 236.973 423.412 238.894C422.036 240.815 420.373 242.348 418.424 243.495C416.503 244.642 414.253 245.215 411.673 245.215C408.72 245.215 406.341 244.269 404.535 242.377C402.729 240.485 401.826 237.59 401.826 233.691C401.826 231.77 402.041 229.893 402.471 228.058C402.93 226.195 403.417 224.518 403.933 223.027C403.876 222.769 403.847 222.468 403.847 222.124C403.847 220.891 404.033 219.73 404.406 218.641C404.807 217.523 405.309 216.548 405.911 215.717C406.542 214.857 407.201 214.183 407.889 213.696C408.606 213.209 409.279 212.965 409.91 212.965C410.569 212.965 411.143 213.194 411.63 213.653C412.146 214.083 412.404 214.843 412.404 215.932C412.404 216.591 412.16 217.509 411.673 218.684C411.214 219.831 410.684 221.207 410.082 222.812C409.48 224.389 408.935 226.166 408.448 228.144C407.989 230.093 407.76 232.186 407.76 234.422C407.76 237.518 409.308 239.066 412.404 239.066C414.009 239.066 415.385 238.607 416.532 237.69C417.707 236.744 418.668 235.483 419.413 233.906C420.187 232.329 420.818 230.552 421.305 228.574C421.792 226.596 422.165 224.561 422.423 222.468C422.681 220.347 422.867 218.311 422.982 216.362C423.068 215.273 423.398 214.484 423.971 213.997C424.573 213.51 425.29 213.266 426.121 213.266C426.666 213.266 427.167 213.366 427.626 213.567C428.085 213.739 428.457 214.169 428.744 214.857C429.031 215.545 429.174 216.634 429.174 218.125ZM460.139 247.838C459.537 247.838 458.978 247.695 458.462 247.408C457.946 247.121 457.53 246.62 457.215 245.903C456.928 245.186 456.842 244.183 456.957 242.893C455.953 239.51 455.036 236.142 454.205 232.788C453.402 229.434 452.642 225.98 451.926 222.425C450.894 224.776 449.962 227.184 449.131 229.649C448.299 232.086 447.554 234.393 446.895 236.572C446.235 238.722 445.633 240.528 445.089 241.99C444.659 243.28 444.229 244.24 443.799 244.871C443.369 245.473 442.939 245.86 442.509 246.032C442.107 246.233 441.706 246.333 441.305 246.333C440.33 246.333 439.585 246.104 439.069 245.645C438.553 245.186 438.295 244.355 438.295 243.151C438.295 242.52 438.467 241.56 438.811 240.27C439.155 238.951 439.613 237.446 440.187 235.755C440.789 234.035 441.477 232.243 442.251 230.38C443.025 228.488 443.842 226.653 444.702 224.876C445.562 223.099 446.422 221.493 447.282 220.06C448.142 218.598 448.973 217.437 449.776 216.577C450.578 215.717 451.295 215.287 451.926 215.287C452.47 215.287 452.972 215.344 453.431 215.459C453.889 215.545 454.334 215.803 454.764 216.233C455.194 216.634 455.638 217.308 456.097 218.254C456.469 218.971 456.842 220.003 457.215 221.35C457.587 222.669 457.946 224.188 458.29 225.908C458.634 227.599 458.978 229.377 459.322 231.24C459.694 233.103 460.067 234.924 460.44 236.701C461.529 231.742 462.403 227.384 463.063 223.629C463.751 219.845 464.252 216.878 464.568 214.728C464.883 212.578 465.055 211.446 465.084 211.331C465.284 210.5 465.499 209.926 465.729 209.611C465.958 209.267 466.216 209.066 466.503 209.009C466.789 208.923 467.119 208.88 467.492 208.88C467.52 208.88 467.535 208.88 467.535 208.88C468.28 208.88 469.011 209.181 469.728 209.783C470.473 210.385 470.846 211.202 470.846 212.234C470.846 212.578 470.774 213.352 470.631 214.556C470.487 215.731 470.272 217.222 469.986 219.028C469.728 220.805 469.384 222.783 468.954 224.962C468.524 227.112 468.022 229.362 467.449 231.713C466.904 234.035 466.288 236.343 465.6 238.636C464.912 240.929 464.152 243.079 463.321 245.086C462.862 246.233 462.317 246.978 461.687 247.322C461.085 247.666 460.569 247.838 460.139 247.838ZM485.789 246.677C484.642 246.677 483.782 246.362 483.209 245.731C482.636 245.1 482.349 244.455 482.349 243.796C482.349 243.022 482.492 242.434 482.779 242.033C483.066 241.632 483.625 241.331 484.456 241.13C485.545 240.901 486.678 240.614 487.853 240.27C489.057 239.926 490.204 239.568 491.293 239.195C492.411 238.794 493.386 238.392 494.217 237.991C495.048 237.561 495.65 237.16 496.023 236.787C495.564 236.529 494.833 236.228 493.83 235.884C492.827 235.511 491.709 235.081 490.476 234.594C489.272 234.078 488.111 233.476 486.993 232.788C485.875 232.1 484.958 231.297 484.241 230.38C483.524 229.463 483.166 228.416 483.166 227.241C483.166 225.607 483.582 224.073 484.413 222.64C485.244 221.207 486.348 219.874 487.724 218.641C489.1 217.408 490.591 216.276 492.196 215.244C493.83 214.212 495.45 213.28 497.055 212.449C498.689 211.589 500.151 210.829 501.441 210.17C501.928 209.883 502.387 209.697 502.817 209.611C503.276 209.496 503.691 209.439 504.064 209.439C505.354 209.439 506.243 209.754 506.73 210.385C507.217 211.016 507.461 211.661 507.461 212.32C507.461 212.779 507.246 213.323 506.816 213.954C506.386 214.556 505.698 215.115 504.752 215.631C503.835 216.147 502.616 216.52 501.097 216.749C500.839 216.778 500.61 216.806 500.409 216.835C499.262 217.408 498.03 218.096 496.711 218.899C495.392 219.702 494.145 220.547 492.97 221.436C491.823 222.296 490.877 223.156 490.132 224.016C489.387 224.876 489.014 225.65 489.014 226.338C489.014 227.112 489.329 227.814 489.96 228.445C490.591 229.047 491.393 229.606 492.368 230.122C493.371 230.609 494.418 231.082 495.507 231.541C496.625 232 497.671 232.473 498.646 232.96C499.649 233.419 500.466 233.935 501.097 234.508C501.728 235.081 502.043 235.726 502.043 236.443C502.043 237.418 501.713 238.349 501.054 239.238C500.395 240.127 499.535 240.958 498.474 241.732C497.413 242.477 496.252 243.151 494.991 243.753C493.73 244.355 492.483 244.871 491.25 245.301C490.046 245.76 488.957 246.104 487.982 246.333C487.007 246.562 486.276 246.677 485.789 246.677ZM519.127 235.196C518.726 235.196 518.368 235.038 518.052 234.723C517.766 234.379 517.622 233.763 517.622 232.874C517.622 232.243 517.737 231.254 517.966 229.907C518.196 228.56 518.511 227.012 518.912 225.263C519.342 223.486 519.83 221.637 520.374 219.716C520.919 217.767 521.507 215.86 522.137 213.997C522.768 212.105 523.413 210.399 524.072 208.88C524.388 208.135 524.875 207.576 525.534 207.203C526.222 206.802 526.968 206.601 527.77 206.601C528.602 206.601 529.204 206.988 529.576 207.762C529.949 208.536 530.135 209.382 530.135 210.299C530.135 210.643 529.963 211.288 529.619 212.234C529.304 213.18 528.874 214.327 528.329 215.674C527.785 217.021 527.183 218.483 526.523 220.06C525.893 221.608 525.248 223.185 524.588 224.79C523.958 226.367 523.37 227.872 522.825 229.305C522.281 230.738 521.836 232 521.492 233.089C521.263 233.863 520.948 234.408 520.546 234.723C520.174 235.038 519.701 235.196 519.127 235.196ZM516.891 247.193C516.547 247.193 516.146 247.107 515.687 246.935C515.229 246.763 514.827 246.347 514.483 245.688C514.168 245.057 514.01 244.04 514.01 242.635C514.01 241.546 514.354 240.714 515.042 240.141C515.73 239.568 516.648 239.281 517.794 239.281C518.769 239.281 519.514 239.553 520.03 240.098C520.575 240.643 520.847 241.417 520.847 242.42C520.847 243.337 520.618 244.154 520.159 244.871C519.729 245.588 519.199 246.147 518.568 246.548C517.966 246.978 517.407 247.193 516.891 247.193Z" fill="white"/>
</svg>
